<svg version="1.2" xmlns="http://www.w3.org/2000/svg" xmlns:xlink="http://www.w3.org/1999/xlink" width="800" height="720">
<defs>
<marker id="arrow_head" markerWidth="10" markerHeight="7" refX="3.5" refY="3.5" orient="auto">
<polygon points="0 0, 10 3.5, 0 7"/>
</marker>
<marker id="lost_arrow_head" markerWidth="10" markerHeight="10" refX="5" refY="5" orient="auto">
<line x1="0" y1="0" x2="10" y2="10" style="stroke:black;stroke-width:1"/>
<line x1="0" y1="10" x2="10" y2="0" style="stroke:black;stroke-width:1"/>
</marker>

<marker id="reverse_arrow_head" markerWidth="10" markerHeight="7" refX="-3.5" refY="3.5" orient="auto">
<polygon points="0 0, -10 3.5, 0 7"/>
</marker>
<marker id="open_arrow_head" markerWidth="10" markerHeight="11" refX="5" refY="5" orient="auto">
<line x1="5" y1="5" x2="-3" y2="8" style="stroke:black;stroke-width:1"/>
<line x1="5" y1="5" x2="-3" y2="2" style="stroke:black;stroke-width:1"/>
</marker>
</defs>
<rect id="title_rectangle_1" x="0" y="0" rx="0" ry="0" width="800" height="70" style="fill:none;stroke:none;stroke-width:2"/>
<text id="title_text_2" x="353" y="41" font-size="16" font-weight="normal" font-family="sans-serif"> Pizza Delivery</text>

<!-- Task 1 Node -->
<rect id="task_rectangle_3" x="50" y="70" rx="10" ry="10" width="137" height="50" style="fill:white;stroke:grey;stroke-width:2"/>
<text id="task_text_4" x="87" y="102" font-size="14" font-weight="normal" font-family="sans-serif">Customer</text>
<rect id="task_rectangle_5" x="50" y="668" rx="10" ry="10" width="137" height="50" style="fill:white;stroke:grey;stroke-width:2"/>
<text id="task_text_6" x="87" y="700" font-size="14" font-weight="normal" font-family="sans-serif">Customer</text>
<!-- Task 1 Upper Lower Connector -->
<path id="line_task_1" d="M 118 120 L 118 668" stroke="black" stroke-width="2" fill="none"/>

<!-- Task 2 Node -->
<rect id="task_rectangle_7" x="237" y="70" rx="10" ry="10" width="137" height="50" style="fill:white;stroke:grey;stroke-width:2"/>
<text id="task_text_8" x="286" y="102" font-size="14" font-weight="normal" font-family="sans-serif">Driver</text>
<rect id="task_rectangle_9" x="237" y="668" rx="10" ry="10" width="137" height="50" style="fill:white;stroke:grey;stroke-width:2"/>
<text id="task_text_10" x="286" y="700" font-size="14" font-weight="normal" font-family="sans-serif">Driver</text>
<!-- Task 2 Upper Lower Connector -->
<path id="line_task_2" d="M 305 120 L 305 668" stroke="black" stroke-width="2" fill="none"/>

<!-- Connection 1 -->
<rect id="connection_text_rectangle_11" x="128" y="140" rx="0" ry="0" width="354" height="40" style="fill:white;stroke:none;stroke-width:2"/>
<text id="connection_text_text_12" x="267" y="167" font-size="14" font-weight="normal" font-family="sans-serif">Pizza Order</text>
<path id="connection_arrow_1" d="M 118 190 L 492 190" stroke="black" stroke-width="2" fill="none"  marker-end="url(#arrow_head)"/>
<!-- Task 3 Node -->
<rect id="task_rectangle_13" x="424" y="70" rx="10" ry="10" width="137" height="50" style="fill:white;stroke:grey;stroke-width:2"/>
<text id="task_text_14" x="438" y="102" font-size="14" font-weight="normal" font-family="sans-serif">Pizza Call Center</text>
<rect id="task_rectangle_15" x="424" y="668" rx="10" ry="10" width="137" height="50" style="fill:white;stroke:grey;stroke-width:2"/>
<text id="task_text_16" x="438" y="700" font-size="14" font-weight="normal" font-family="sans-serif">Pizza Call Center</text>
<!-- Task 3 Upper Lower Connector -->
<path id="line_task_3" d="M 492 120 L 492 668" stroke="black" stroke-width="2" fill="none"/>

<!-- Connection 2 -->
<rect id="connection_text_rectangle_17" x="502" y="200" rx="0" ry="0" width="167" height="40" style="fill:white;stroke:none;stroke-width:2"/>
<text id="connection_text_text_18" x="548" y="227" font-size="14" font-weight="normal" font-family="sans-serif">Pizza Order</text>
<path id="connection_arrow_2" d="M 492 250 L 679 250" stroke="black" stroke-width="2" fill="none"  marker-end="url(#arrow_head)"/>
<!-- Connection 3 -->
<rect id="connection_text_rectangle_19" x="128" y="260" rx="0" ry="0" width="541" height="40" style="fill:white;stroke:none;stroke-width:2"/>
<text id="connection_text_text_20" x="309" y="286" font-size="14" font-weight="normal" font-family="sans-serif">Pizza is Cooking Notification</text>
<path id="connection_arrow_3" d="M 679 310 L 108 310" stroke="black" stroke-width="3" fill="none" stroke-dasharray=" 10 5" marker-end="url(#open_arrow_head)"/>
<!-- Connection 4 -->
<rect id="self_connection_text_4_rectangle_21" x="611" y="320" rx="0" ry="0" width="137" height="40" style="fill:white;stroke:none;stroke-width:2"/>
<text id="self_connection_text_4_text_22" x="635" y="346" font-size="14" font-weight="normal" font-family="sans-serif">Prepare Pizza</text>
<path id="self_connection_arrow_4" d="M 679 370 L 729 370 L 729 400 679 400 " stroke="black" stroke-linejoin="round" stroke-width="2" fill="none"  marker-end="url(#arrow_head)"/>
<!-- Task 4 Node -->
<rect id="task_rectangle_23" x="611" y="70" rx="10" ry="10" width="137" height="50" style="fill:white;stroke:grey;stroke-width:2"/>
<text id="task_text_24" x="656" y="102" font-size="14" font-weight="normal" font-family="sans-serif">Kitchen</text>
<rect id="task_rectangle_25" x="611" y="668" rx="10" ry="10" width="137" height="50" style="fill:white;stroke:grey;stroke-width:2"/>
<text id="task_text_26" x="656" y="700" font-size="14" font-weight="normal" font-family="sans-serif">Kitchen</text>
<!-- Task 4 Upper Lower Connector -->
<path id="line_task_4" d="M 679 120 L 679 668" stroke="black" stroke-width="2" fill="none"/>

<!-- Connection 5 -->
<rect id="connection_text_rectangle_27" x="315" y="420" rx="0" ry="0" width="354" height="40" style="fill:white;stroke:none;stroke-width:2"/>
<text id="connection_text_text_28" x="445" y="446" font-size="14" font-weight="normal" font-family="sans-serif">Pizza is Ready</text>
<path id="connection_arrow_5" d="M 679 470 L 305 470" stroke="black" stroke-width="2" fill="none"  marker-end="url(#arrow_head)"/>
<!-- Connection 6 -->
<rect id="connection_text_rectangle_29" x="128" y="480" rx="0" ry="0" width="167" height="40" style="fill:white;stroke:none;stroke-width:2"/>
<text id="connection_text_text_30" x="181" y="507" font-size="14" font-weight="normal" font-family="sans-serif">Hot Pizza</text>
<path id="connection_arrow_6" d="M 305 530 L 118 530" stroke="black" stroke-width="2" fill="none"  marker-end="url(#arrow_head)"/>
<!-- Note #1, object #7 -->
<rect id="note_1_rectangle_31" x="108" y="550" rx="0" ry="0" width="207" height="40" style="fill:rgb(255, 253, 238);stroke:rgb(221, 219, 204);stroke-width:2"/>
<text id="note_1_text_32" x="112" y="568" font-size="14" font-weight="normal" font-family="sans-serif">The driver quickly rides hisbike</text>
<text id="note_1_text_33" x="112" y="583" font-size="14" font-weight="normal" font-family="sans-serif">to  the customer's house</text>

<!-- List of objects to moved to top -->
<use xlink:href="#self_connection_text_4_rectangle_21" />
<use xlink:href="#self_connection_text_4_text_22" />
<use xlink:href="#note_1_rectangle_31" />
<use xlink:href="#note_1_text_32" />
<use xlink:href="#note_1_text_33" />
</svg>